<?xml version="1.0" encoding="utf-8"?>
<!-- Generator: Adobe Illustrator 16.0.0, SVG Export Plug-In . SVG Version: 6.00 Build 0)  -->
<!DOCTYPE svg PUBLIC "-//W3C//DTD SVG 1.1//EN" "http://www.w3.org/Graphics/SVG/1.1/DTD/svg11.dtd">
<svg version="1.1" id="Layer_1" xmlns="http://www.w3.org/2000/svg" xmlns:xlink="http://www.w3.org/1999/xlink" x="0px" y="0px"
	 width="1024px" height="1024px" viewBox="0 0 1024 1024" enable-background="new 0 0 1024 1024" xml:space="preserve">
<g>
	<g>
		<polygon fill="#010202" points="787.508,321.202 896.722,429.276 896.119,213.725 896.845,213.007 896.114,212.285 
			895.962,158.188 841.291,158.038 840.558,157.313 839.832,158.033 622.009,157.433 731.226,265.507 500.4,493.925 
			269.576,265.508 378.793,157.433 160.969,158.033 160.24,157.313 159.51,158.038 104.844,158.188 104.692,212.277 
			103.953,213.007 104.687,213.732 104.078,429.276 213.291,321.204 444.115,549.622 218.837,772.553 104.134,659.043 
			104.844,941.053 389.821,941.757 275.119,828.248 500.399,605.318 725.682,828.248 610.979,941.757 895.962,941.053 
			896.664,659.043 781.961,772.553 556.684,549.622 		"/>
	</g>
</g>
</svg>
