<?xml version="1.0" encoding="utf-8"?>
<!-- Generator: Adobe Illustrator 16.0.0, SVG Export Plug-In . SVG Version: 6.00 Build 0)  -->
<!DOCTYPE svg PUBLIC "-//W3C//DTD SVG 1.1//EN" "http://www.w3.org/Graphics/SVG/1.1/DTD/svg11.dtd">
<svg version="1.1" id="Layer_1" xmlns="http://www.w3.org/2000/svg" xmlns:xlink="http://www.w3.org/1999/xlink" x="0px" y="0px"
	 width="1024px" height="1024px" viewBox="0 0 1024 1024" enable-background="new 0 0 1024 1024" xml:space="preserve">
<g>
	<g>
		<path fill="#010202" d="M792.323,560.408c-38.731-35.067-96.829-59.503-174.287-73.302
			c65.839-17.246,115.122-41.004,147.854-71.285c32.726-30.274,49.094-67.266,49.094-110.956
			c0-57.871-24.787-103.575-74.363-137.117c-49.579-33.534-142.538-50.308-278.868-50.308h-42.988l-302.686,8.625v63.816
			c42.992,0,70.878,6.711,83.665,20.121c12.777,13.423,19.167,38.518,19.167,75.313v457.054c0,37.939-6.778,63.334-20.332,76.174
			c-13.563,12.844-41.058,19.259-82.499,19.259v63.819h413.068c115.031,0,197.328-18.198,246.915-54.619
			c49.571-36.409,74.361-86.233,74.361-149.475C850.421,641.182,831.053,595.477,792.323,560.408z M425.156,185.283
			c41.824,0,73.485,3.071,94.983,9.198c21.494,6.135,38.826,19.744,51.997,40.816c13.166,21.085,19.751,49.831,19.751,86.24
			c0,48.677-10.453,82.883-31.369,102.618c-20.916,19.745-52.677,29.607-95.282,29.607h-40.081V185.283z M595.667,794.683
			c-18.397,25.682-45.996,38.521-82.784,38.521c-23.63,0-41.928-3.736-54.905-11.21c-12.98-7.475-21.694-16.761-26.144-27.884
			c-4.457-11.109-6.676-27.397-6.676-48.866v-221.34h37.76c41.05,0,72.045,4.025,92.955,12.076
			c20.916,8.046,37.376,23.664,49.385,46.854c12.002,23.192,18.007,55.288,18.007,96.295
			C623.262,730.493,614.057,769.011,595.667,794.683z"/>
	</g>
</g>
</svg>
