<?xml version="1.0" encoding="utf-8"?>
<!-- Generator: Adobe Illustrator 16.0.0, SVG Export Plug-In . SVG Version: 6.00 Build 0)  -->
<!DOCTYPE svg PUBLIC "-//W3C//DTD SVG 1.1//EN" "http://www.w3.org/Graphics/SVG/1.1/DTD/svg11.dtd">
<svg version="1.1" id="Layer_1" xmlns="http://www.w3.org/2000/svg" xmlns:xlink="http://www.w3.org/1999/xlink" x="0px" y="0px"
	 width="1024px" height="1024px" viewBox="0 0 1024 1024" enable-background="new 0 0 1024 1024" xml:space="preserve">
<g>
	<g>
		<path fill="#010202" d="M761.669,303.687l-162.527,0.198c-28.383,0.04-51.429,22.781-51.459,50.796
			c-0.041,28,22.944,50.684,51.324,50.656l162.537-0.198c66.531-0.079,120.603,53.271,120.52,118.953
			c-0.083,65.674-54.284,119.176-120.821,119.253l-162.536,0.201c-28.374,0.024-51.421,22.78-51.454,50.781
			c-0.03,28.009,22.952,50.699,51.334,50.659l162.531-0.197c123.205-0.146,223.578-99.209,223.735-220.814
			C985.002,402.359,884.875,303.535,761.669,303.687z M259.658,405.754l161.906-0.199c28.389-0.04,51.42-22.781,51.451-50.787
			c0.039-28.004-22.935-50.699-51.33-50.666L259.787,304.3c-123.24,0.158-223.596,99.223-223.745,220.832
			C35.886,646.729,135.995,745.55,259.229,745.4l161.907-0.198c28.394-0.028,51.419-22.77,51.46-50.781
			c0.028-28.01-22.939-50.699-51.329-50.661l-161.914,0.199c-66.534,0.077-120.609-53.282-120.529-118.946
			C138.913,459.332,193.121,405.833,259.658,405.754z M408.873,87.723c-11.81-20.174-40.382-25.682-60.732-14.089
			c-20.362,11.596-31.06,39.487-19.25,59.661l59.258,95.283c11.803,20.162,41.634,24.965,61.98,13.368
			c20.362-11.594,29.801-38.783,17.999-58.947L408.873,87.723z M587.956,243.85c17.923,10.602,44.196,6.213,54.589-12.222
			l59.872-106.044c10.398-18.444,0.976-43.946-16.953-54.548c-17.925-10.599-43.089-5.564-53.49,12.883l-59.866,106.036
			C561.713,208.393,570.026,233.248,587.956,243.85z M643.242,818.906c-11.803-20.161-41.636-24.965-61.985-13.365
			c-20.362,11.594-29.803,38.779-17.993,58.946l59.253,95.273c11.807,20.178,40.378,25.687,60.733,14.093
			c20.359-11.597,31.055-39.488,19.248-59.662L643.242,818.906z M443.432,803.638c-17.922-10.607-44.198-6.214-54.592,12.22
			l-59.866,106.041c-10.402,18.444-0.981,43.946,16.953,54.549c17.921,10.599,43.089,5.565,53.49-12.885l59.863-106.036
			C469.676,839.092,461.36,814.236,443.432,803.638z"/>
	</g>
</g>
</svg>
