<?xml version="1.0" encoding="UTF-8" standalone="no"?>
<!-- Created with Inkscape (http://www.inkscape.org/) -->
<svg id="svg3446" xmlns:rdf="http://www.w3.org/1999/02/22-rdf-syntax-ns#" xmlns="http://www.w3.org/2000/svg" xmlns:osb="http://www.openswatchbook.org/uri/2009/osb" height="3.9511mm" width="3.3877mm" version="1.1" xmlns:cc="http://creativecommons.org/ns#" xmlns:xlink="http://www.w3.org/1999/xlink" viewBox="0 0 12.003805 14" xmlns:dc="http://purl.org/dc/elements/1.1/">
 <metadata id="metadata3451">
  <rdf:RDF>
   <cc:Work rdf:about="">
    <dc:format>image/svg+xml</dc:format>
    <dc:type rdf:resource="http://purl.org/dc/dcmitype/StillImage"/>
    <dc:title/>
   </cc:Work>
  </rdf:RDF>
 </metadata>
 <g id="layer1" transform="translate(766 140.35)">
  <g id="g3428" transform="translate(-3526 -322.75)">
   <path id="path3400-4-4-5" d="m2763.4 186.01q0.222 0 0.3917 0.16102l0.3264 0.32641q0.1653 0.16538 0.1653 0.39603 0 0.23501-0.1653 0.3917l-1.2751 1.2795h3.0639q0.2263 0 0.3676 0.1632 0.1416 0.16322 0.1416 0.39388v0.55707q0 0.23065-0.1416 0.39385-0.1413 0.16321-0.3676 0.16321h-3.0639l1.2751 1.2795q0.1653 0.15668 0.1653 0.39169 0 0.23502-0.1653 0.39169l-0.3264 0.32641q-0.1654 0.16538-0.3917 0.16538-0.2306 0-0.3961-0.16538l-2.8331-2.8332q-0.1611-0.15233-0.1611-0.3917 0-0.23501 0.1611-0.39604l2.8331-2.8332q0.1698-0.16102 0.3961-0.16102z" stroke-width="0"/>
   <path id="polygon3366-49-8-3" style="image-rendering:optimizeQuality;shape-rendering:geometricPrecision" d="m2767.4 182.4c-0.2524 0-0.455 0.16884-0.455 0.3789v13.242c0 0.21006 0.2026 0.37891 0.455 0.37891h4.17c0.2524 0 0.457-0.16885 0.457-0.37891v-13.242c0-0.21006-0.2046-0.3789-0.457-0.3789h-4.17zm0.5977 1.1582h2.9766v3.2168h-2.9766v-3.2168zm0 4.2852h2.9766v3.2148h-2.9766v-3.2148zm0 4.2832h2.9766v3.2148h-2.9766v-3.2148z" fill-rule="evenodd" clip-rule="evenodd"/>
  </g>
 </g>
</svg>
