<?xml version="1.0" encoding="utf-8"?>
<!-- Generator: Adobe Illustrator 16.0.0, SVG Export Plug-In . SVG Version: 6.00 Build 0)  -->
<!DOCTYPE svg PUBLIC "-//W3C//DTD SVG 1.1//EN" "http://www.w3.org/Graphics/SVG/1.1/DTD/svg11.dtd">
<svg version="1.1" id="Layer_1" xmlns="http://www.w3.org/2000/svg" xmlns:xlink="http://www.w3.org/1999/xlink" x="0px" y="0px"
	 width="1024px" height="1024px" viewBox="0 0 1024 1024" enable-background="new 0 0 1024 1024" xml:space="preserve">
<g>
	<g>
		<path fill="#010202" d="M877.85,879.112c-21.773-13.312-46.109-52.918-73.005-118.828L532.661,94.852h-74.928L190.679,760.917
			c-37.147,92.113-83.046,138.157-137.692,138.157v70.347h286.907v-70.347c-32.021,0-55.077-4.12-69.166-12.357
			c-14.091-8.239-21.134-22.708-21.134-43.411c0-12.248,5.973-33.371,17.929-63.375l16.654-42.462h267.056l24.977,62.743
			l8.325,19.644c7.689,16.48,11.527,29.786,11.527,39.927c0,11.41-4.699,20.818-14.085,28.206
			c-9.403,7.395-33.527,11.088-72.372,11.088v70.346h431.005v-70.346C920.539,899.074,899.627,892.419,877.85,879.112z
			 M311.72,664.591l102.463-256.668l108.232,256.668H311.72z"/>
	</g>
</g>
</svg>
