<?xml version="1.0" encoding="utf-8"?>
<!-- Generator: Adobe Illustrator 16.0.0, SVG Export Plug-In . SVG Version: 6.00 Build 0)  -->
<!DOCTYPE svg PUBLIC "-//W3C//DTD SVG 1.1//EN" "http://www.w3.org/Graphics/SVG/1.1/DTD/svg11.dtd">
<svg version="1.1" id="Layer_1" xmlns="http://www.w3.org/2000/svg" xmlns:xlink="http://www.w3.org/1999/xlink" x="0px" y="0px"
	 width="1024px" height="1024px" viewBox="0 0 1024 1024" enable-background="new 0 0 1024 1024" xml:space="preserve">
<g>
	<g>
		<path fill="#010202" d="M929.19,136.535H93.108c-35.346,0-64,28.654-64,64v623.464c0,35.346,28.654,64,64,64H929.19
			c35.347,0,64-28.654,64-64V200.535C993.19,165.189,964.536,136.535,929.19,136.535z M217.872,185.801H805.01
			c33.363,0,66.255-1.137,91.397,5.333l-49.396,48.885c-6.359-2.118-13.155-3.282-20.228-3.282H194.416
			c-7.308,0-14.319,1.241-20.86,3.496l-49.242-48.729C150.017,184.624,183.889,185.801,217.872,185.801z M180.156,678.217V330.749
			c0-52.091,39.502-44.022,92.14-44.022h471.989c52.639,0,96.895-8.069,96.895,44.022v347.468c0,52.088-44.256,61.383-96.895,61.383
			H272.296C219.658,739.6,180.156,730.305,180.156,678.217z M79.716,249.458c0-10.484,1.617-19.243,4.591-26.571l51.868,51.327
			c-3.688,8.083-5.758,17.059-5.758,26.523v423.06c0,9.525,2.096,18.557,5.828,26.679l-43.96,43.503
			c-8.894-18.436-12.568-43.993-12.568-79.195L79.716,249.458L79.716,249.458z M805.01,838.956H217.872
			c-38.485,0-67.248-2.593-88.279-10.927l44.131-43.671c6.493,2.218,13.447,3.438,20.691,3.438h632.368
			c7.008,0,13.745-1.143,20.057-3.224l46.011,45.529C872.255,837.271,843.785,838.956,805.01,838.956z M941.584,714.782
			c0,36.974-3.08,63.084-11.211,81.479l-45.682-45.203c3.901-8.271,6.092-17.511,6.092-27.263v-423.06
			c0-9.692-2.166-18.875-6.021-27.108l52.031-51.488c3.104,7.477,4.791,16.477,4.791,27.317V714.782z"/>
	</g>
</g>
</svg>
