<?xml version="1.0" encoding="utf-8"?>
<!-- Generator: Adobe Illustrator 16.0.0, SVG Export Plug-In . SVG Version: 6.00 Build 0)  -->
<!DOCTYPE svg PUBLIC "-//W3C//DTD SVG 1.1//EN" "http://www.w3.org/Graphics/SVG/1.1/DTD/svg11.dtd">
<svg version="1.1" id="Layer_1" xmlns="http://www.w3.org/2000/svg" xmlns:xlink="http://www.w3.org/1999/xlink" x="0px" y="0px"
	 width="1024px" height="1024px" viewBox="0 0 1024 1024" enable-background="new 0 0 1024 1024" xml:space="preserve">
<g>
	<g>
		<path fill="#010202" d="M427.552,6.116l-22.083,69.339c22.334,2.018,42.771,7.42,61.313,16.205
			c18.527,8.797,27.793,27.771,27.793,56.905c0,12.566-4.565,34.674-13.709,66.327L285.889,827.351
			c-11.177,36.687-24.375,64.95-39.604,84.796c-15.235,19.852-41.13,29.768-77.689,29.768l-22.088,69.343h429.564l19.806-69.343
			c-28.443,0-53.197-5.65-74.261-16.953c-21.079-11.312-31.607-29.773-31.607-55.398c0-15.57,4.565-30.448,13.709-59.089
			L697.18,190.019c9.136-29.134,17.896-51.37,26.272-66.7c8.382-15.322,19.427-27.008,33.138-35.049
			c13.709-8.029,30.962-12.307,51.789-12.815l22.086-69.339H427.552z"/>
	</g>
</g>
</svg>
