<svg xmlns="http://www.w3.org/2000/svg" xmlns:xlink="http://www.w3.org/1999/xlink" preserveAspectRatio="xMidYMid" width="1024" height="1024" viewBox="0 0 1024 1024">
  <defs>
    <style>
      .cls-1 {
        fill: #000;
        fill-rule: evenodd;
      }
    </style>
  </defs>
  <path d="M761.705,263.012 L611.333,263.218 C579.339,263.218 553.434,288.891 553.331,320.339 C553.331,351.890 579.133,377.357 611.127,377.357 L761.499,377.151 C836.427,377.048 897.319,437.056 897.216,510.984 C897.112,584.912 836.117,645.126 761.086,645.126 L610.714,645.333 C578.720,645.333 552.815,671.006 552.815,702.454 C552.815,734.005 578.617,759.472 610.611,759.472 L760.983,759.266 C899.796,759.060 1012.807,647.601 1013.013,510.778 C1013.323,374.058 900.518,262.805 761.705,263.012 ZM411.009,645.642 L263.527,645.848 C188.599,645.951 127.707,585.840 127.810,512.015 C127.913,438.087 189.012,377.873 263.940,377.770 L411.422,377.564 C443.416,377.564 469.321,351.890 469.321,320.442 C469.321,288.891 443.519,263.424 411.525,263.424 L264.043,263.630 C125.230,263.836 12.219,375.295 12.012,512.118 C11.806,648.941 124.611,760.194 263.424,759.988 L410.906,759.782 C442.900,759.782 468.805,734.211 468.908,702.660 C468.908,671.109 443.003,645.642 411.009,645.642 ZM306.977,517.583 C306.977,549.134 332.779,574.601 364.773,574.601 L662.627,574.292 C694.621,574.292 720.526,548.618 720.629,517.171 C720.629,485.620 694.827,460.152 662.833,460.152 L364.979,460.462 C332.985,460.462 307.080,486.032 306.977,517.583 Z" class="cls-1"/>
</svg>
