<?xml version="1.0" encoding="utf-8"?>
<!-- Generator: Adobe Illustrator 16.0.0, SVG Export Plug-In . SVG Version: 6.00 Build 0)  -->
<!DOCTYPE svg PUBLIC "-//W3C//DTD SVG 1.1//EN" "http://www.w3.org/Graphics/SVG/1.1/DTD/svg11.dtd">
<svg version="1.1" id="Layer_1" xmlns="http://www.w3.org/2000/svg" xmlns:xlink="http://www.w3.org/1999/xlink" x="0px" y="0px"
	 width="1024px" height="1024px" viewBox="0 0 1024 1024" enable-background="new 0 0 1024 1024" xml:space="preserve">
<g>
	<g>
		<path fill="#010202" d="M771.629,306.27l-167.965,0.205c-29.332,0.042-53.148,23.543-53.183,52.497
			c-0.042,28.937,23.715,52.379,53.043,52.351l167.972-0.207c68.761-0.082,124.639,55.053,124.556,122.933
			c-0.087,67.871-56.103,123.163-124.865,123.242l-167.976,0.208c-29.324,0.025-53.139,23.543-53.172,52.48
			c-0.034,28.946,23.719,52.395,53.051,52.354l167.97-0.205c127.323-0.148,231.055-102.528,231.218-228.202
			C1002.433,408.242,898.953,306.113,771.629,306.27z M419.837,657.724l-167.331,0.205c-68.756,0.082-124.645-55.066-124.56-122.926
			c0.091-67.878,56.111-123.17,124.876-123.25l167.323-0.206c29.341-0.042,53.14-23.542,53.17-52.487
			c0.043-28.94-23.699-52.395-53.046-52.361l-167.316,0.205C125.591,307.067,21.879,409.447,21.723,535.124
			c-0.159,125.665,103.296,227.791,230.654,227.638l167.324-0.205c29.344-0.028,53.141-23.531,53.183-52.48
			C472.914,681.131,449.175,657.682,419.837,657.724z M324.377,540.102c-0.038,28.955,23.703,52.396,53.047,52.357l273.247-0.328
			c29.33-0.041,53.143-23.544,53.173-52.487c0.041-28.954-23.716-52.397-53.048-52.356l-273.239,0.329
			C348.214,487.656,324.413,511.159,324.377,540.102z"/>
	</g>
</g>
</svg>
