<?xml version="1.0" encoding="utf-8"?>
<!-- Generator: Adobe Illustrator 19.0.0, SVG Export Plug-In . SVG Version: 6.00 Build 0)  -->
<svg version="1.1" id="Layer_1" xmlns="http://www.w3.org/2000/svg" xmlns:xlink="http://www.w3.org/1999/xlink" x="0px" y="0px"
	 viewBox="0 0 1024 1024" style="enable-background:new 0 0 1024 1024;" xml:space="preserve">
<style type="text/css">
	.st0{fill:#010202;}
</style>
<g>
	<g>
		<path class="st0" d="M753.4,271l-145.7,0.2c-31,0-56.1,24.9-56.2,55.4c0,30.6,25,55.3,56,55.3l145.7-0.2
			c72.6-0.1,131.6,58.1,131.5,129.8c-0.1,71.7-59.2,130.1-131.9,130.1l-145.7,0.2c-31,0-56.1,24.9-56.1,55.4c0,30.6,25,55.3,56,55.3
			l145.7-0.2c134.5-0.2,244-108.3,244.2-241C997.2,378.7,887.9,270.8,753.4,271z M413.6,642.1l-142.9,0.2
			c-72.6,0.1-131.6-58.2-131.5-129.8c0.1-71.7,59.3-130.1,131.9-130.2l142.9-0.2c31,0,56.1-24.9,56.1-55.4c0-30.6-25-55.3-56-55.3
			l-142.9,0.2c-134.5,0.2-244,108.3-244.2,241C26.8,645.3,136.1,753.2,270.6,753l142.9-0.2c31,0,56.1-24.8,56.2-55.4
			C469.7,666.8,444.6,642.1,413.6,642.1z M312.8,517.9c0,30.6,25,55.3,56,55.3l288.6-0.3c31,0,56.1-24.9,56.2-55.4
			c0-30.6-25-55.3-56-55.3L369,462.5C338,462.5,312.9,487.3,312.8,517.9z"/>
	</g>
</g>
</svg>
