<svg xmlns="http://www.w3.org/2000/svg" xmlns:xlink="http://www.w3.org/1999/xlink" preserveAspectRatio="xMidYMid" width="1024" height="1024" viewBox="0 0 1024 1024">
  <defs>
    <style>
      .cls-1 {
        fill: #000;
        fill-rule: evenodd;
      }
    </style>
  </defs>
  <path d="M1001.240,497.441 L1001.240,420.655 L1221.027,420.647 L1221.027,497.441 L1001.240,497.441 ZM859.684,139.609 L1005.943,-5.269 L1060.765,49.032 L914.511,193.902 L859.684,139.609 ZM414.619,422.497 L598.588,240.279 L782.047,421.989 L598.073,604.215 L414.619,422.497 ZM481.268,53.686 L481.278,-163.985 L558.802,-163.985 L558.792,53.686 L481.268,53.686 ZM30.885,1165.999 L-152.579,984.281 L359.792,476.806 L543.252,658.504 L30.885,1165.999 ZM37.556,49.032 L92.378,-5.269 L238.647,139.609 L183.825,193.902 L37.556,49.032 ZM1060.765,953.892 L1005.943,1008.181 L859.684,863.314 L914.511,809.022 L1060.765,953.892 Z" class="cls-1"/>
</svg>
