<?xml version="1.0" encoding="utf-8"?>
<!DOCTYPE svg PUBLIC "-//W3C//DTD SVG 1.1//EN" "http://www.w3.org/Graphics/SVG/1.1/DTD/svg11.dtd">
<svg xmlns="http://www.w3.org/2000/svg" xmlns:xlink="http://www.w3.org/1999/xlink" preserveAspectRatio="xMidYMid" width="1024" height="1024" viewBox="0 0 1024 1024">
  <defs>
    <style>
      .cls-1 {
        fill: #000;
        fill-rule: evenodd;
      }
    </style>
  </defs>
  <path d="M871.550,168.490 L829.868,127.220 L718.661,237.330 L760.353,278.593 L871.550,168.490 ZM856.892,440.727 L856.892,499.082 L1024.000,499.082 L1024.000,440.717 L856.892,440.727 ZM739.060,685.320 L850.266,795.422 L891.950,754.160 L780.744,644.055 L739.060,685.320 ZM338.261,257.738 L227.044,147.627 L185.365,188.897 L296.578,299.000 L338.261,257.738 ZM551.087,27.000 L492.142,27.000 L492.132,192.436 L551.079,192.436 L551.087,27.000 ZM-0.000,858.890 L139.494,996.999 L529.064,611.293 L389.573,473.201 L-0.000,858.890 ZM431.257,431.923 L570.747,570.032 L710.625,431.532 L571.141,293.434 L431.257,431.923 Z" class="cls-1"/>
</svg>
