<?xml version="1.0" encoding="utf-8"?>
<!-- Generator: Adobe Illustrator 16.0.0, SVG Export Plug-In . SVG Version: 6.00 Build 0)  -->
<!DOCTYPE svg PUBLIC "-//W3C//DTD SVG 1.1//EN" "http://www.w3.org/Graphics/SVG/1.1/DTD/svg11.dtd">
<svg version="1.1" id="Layer_1" xmlns="http://www.w3.org/2000/svg" xmlns:xlink="http://www.w3.org/1999/xlink" x="0px" y="0px"
	 width="1024px" height="1024px" viewBox="0 0 1024 1024" enable-background="new 0 0 1024 1024" xml:space="preserve">
<g>
	<g>
		<path fill="#010202" d="M904.528,175.363l-40.868-40.444L754.625,242.826l40.877,40.437L904.528,175.363z M860.156,452.153v57.188
			H1024v-57.198L860.156,452.153z M754.625,781.852l109.034,107.899l40.87-40.436L795.495,741.413L754.625,781.852z
			 M291.654,242.826L182.61,134.918l-40.865,40.444l109.041,107.9L291.654,242.826z M530.324,16.705h-57.794L472.52,178.83h57.796
			L530.324,16.705z M0,871.949l136.77,135.346l381.961-377.989L381.964,493.977L0,871.949z M422.834,453.525L559.6,588.871
			l137.146-135.729L559.986,317.807L422.834,453.525z"/>
	</g>
</g>
</svg>
