<?xml version="1.0" encoding="utf-8"?>
<!-- Generator: Adobe Illustrator 16.0.0, SVG Export Plug-In . SVG Version: 6.00 Build 0)  -->
<!DOCTYPE svg PUBLIC "-//W3C//DTD SVG 1.1//EN" "http://www.w3.org/Graphics/SVG/1.1/DTD/svg11.dtd">
<svg version="1.1" id="Layer_1" xmlns="http://www.w3.org/2000/svg" xmlns:xlink="http://www.w3.org/1999/xlink" x="0px" y="0px"
	 width="1024px" height="1024px" viewBox="0 0 1024 1024" enable-background="new 0 0 1024 1024" xml:space="preserve">
<g>
	<g>
		<path fill="#010202" d="M1012.353,229.413h-669.27v121.522h669.27V229.413L1012.353,229.413z M342.993,470.912v120.443h669.411
			V470.912H342.993z M343.083,831.903h669.27v-120.28h-669.27V831.903z M101.299,488.457h51.823V235.669h-41.234
			c-5.842,38.641-38.684,51.278-74.814,50.197v38.641H101.3L101.299,488.457L101.299,488.457z M203.847,671.025
			c0-49.477-40.876-79.086-87.586-79.086c-61.305,0-94.514,44.417-92.69,102.198h49.631c0-26.723,9.851-58.141,40.507-58.141
			c22.26,0,38.318,14.805,38.318,39.001c0,31.059-31.381,46.226-53.641,61.753c-44.158,29.976-80.654,54.17-80.654,113.032h187.576
			v-44.058H84.511C121.736,753.725,203.847,747.585,203.847,671.025z"/>
	</g>
</g>
</svg>
