<svg xmlns="http://www.w3.org/2000/svg" xmlns:xlink="http://www.w3.org/1999/xlink" preserveAspectRatio="xMidYMid" width="1024" height="1024" viewBox="0 0 1024 1024">
  <defs>
    <style>
      .cls-1 {
        fill: #000;
        fill-rule: evenodd;
      }
    </style>
  </defs>
  <path d="M310.600,594.600 L310.600,431.700 L1022.000,431.700 L1022.000,594.600 L310.600,594.600 ZM309.900,105.000 L1021.200,105.000 L1021.200,269.400 L309.900,269.400 L309.900,105.000 ZM111.122,768.626 C140.928,747.716 183.036,727.406 183.036,685.786 C183.036,653.370 161.532,633.561 131.726,633.561 C90.618,633.561 77.415,675.581 77.415,711.398 L10.802,711.398 C8.401,634.061 52.810,574.432 134.926,574.432 C197.539,574.432 252.350,614.151 252.350,680.484 C252.350,783.133 142.428,791.437 92.718,860.971 L254.350,860.971 L254.350,920.000 L3.000,920.000 C3.000,841.161 51.910,808.746 111.122,768.626 ZM115.222,216.158 L29.205,216.158 L29.205,164.333 C77.515,165.734 121.624,148.826 129.425,97.001 L184.736,97.001 L184.736,435.865 L115.222,435.865 L115.222,216.158 ZM1021.200,920.000 L309.900,920.000 L309.900,757.300 L1021.200,757.300 L1021.200,920.000 Z" class="cls-1"/>
</svg>
