<?xml version="1.0" encoding="utf-8"?>
<!-- Generator: Adobe Illustrator 19.0.0, SVG Export Plug-In . SVG Version: 6.00 Build 0)  -->
<svg version="1.1" id="Layer_1" xmlns="http://www.w3.org/2000/svg" xmlns:xlink="http://www.w3.org/1999/xlink" x="0px" y="0px"
	 viewBox="0 0 1024 1024" style="enable-background:new 0 0 1024 1024;" xml:space="preserve">
<style type="text/css">
	.st0{fill:#010202;}
</style>
<g>
	<g>
		<path class="st0" d="M1229.3,93.8h-690v139.7h690V93.8L1229.3,93.8z M539.2,371.4v138.4h690.2V371.4H539.2z M539.3,786.3h690
			V648.1h-690V786.3z M320,387h59.6V96.4h-47.4c-6.7,44.4-44.5,58.9-86,57.7v44.4H320L320,387L320,387z M437.8,596.8
			c0-56.9-47-90.9-100.7-90.9c-70.5,0-108.6,51.1-106.5,117.5h57.1c0-30.7,11.3-66.8,46.6-66.8c25.6,0,44,17,44,44.8
			c0,35.7-36.1,53.1-61.7,71c-50.8,34.5-92.7,62.3-92.7,129.9h215.6v-50.6H300.7C343.4,691.9,437.8,684.8,437.8,596.8z"/>
	</g>
</g>
</svg>
