<?xml version="1.0" encoding="utf-8"?>
<!-- Generator: Adobe Illustrator 19.0.0, SVG Export Plug-In . SVG Version: 6.00 Build 0)  -->
<svg version="1.1" id="Layer_1" xmlns="http://www.w3.org/2000/svg" xmlns:xlink="http://www.w3.org/1999/xlink" x="0px" y="0px"
	 width="1024px" height="1024px" viewBox="0 0 1024 1024" style="enable-background:new 0 0 1024 1024;" xml:space="preserve">
<g>
	<g>
		<path fill="#010202" class="st0" d="M1014.8,158.8h-690v139.7h690V158.8L1014.8,158.8z M324.6,436.4v138.4h690.2V436.4H324.6z M324.6,851.2h690
			V713.1h-690V851.2L324.6,851.2z M105.5,452h59.6V161.4h-47.4c-6.7,44.4-44.5,58.9-86,57.7v44.4h73.8L105.5,452L105.5,452z
			 M223.2,661.8c0-56.9-47-90.9-100.7-90.9C52,570.8,13.9,622,16,688.3h57.1c0-30.7,11.3-66.8,46.6-66.8c25.6,0,44,17,44,44.8
			c0,35.7-36.1,53.1-61.7,71C51.2,771.8,9.3,799.6,9.3,867.2h215.6v-50.6H86.2C128.9,756.9,223.2,749.8,223.2,661.8z"/>
	</g>
</g>
</svg>
