<?xml version="1.0" encoding="utf-8"?>
<!-- Generator: Adobe Illustrator 19.0.0, SVG Export Plug-In . SVG Version: 6.00 Build 0)  -->
<svg version="1.1" id="Layer_1" xmlns="http://www.w3.org/2000/svg" xmlns:xlink="http://www.w3.org/1999/xlink" x="0px" y="0px"
	 viewBox="32 -32 1024 1024" style="enable-background:new 32 -32 1024 1024;" xml:space="preserve">
<style type="text/css">
	.st0{fill:#010202;}
</style>
<g>
	<g>
		<path class="st0" d="M1006.7,126.8h-650v139.7h650V126.8L1006.7,126.8z M356.5,404.4v138.4h650.2V404.4H356.5z M356.5,819.2h650
			V681.1h-650V819.2L356.5,819.2z M177.4,409H237V118.4h-47.4c-6.7,44.4-44.5,58.9-86,57.7v44.4h73.8L177.4,409L177.4,409z
			 M295.1,618.8c0-56.9-47-90.9-100.7-90.9C123.9,527.8,85.8,579,87.9,645.3H145c0-30.7,11.3-66.8,46.6-66.8c25.6,0,44,17,44,44.8
			c0,35.7-36.1,53.1-61.7,71c-50.8,34.5-92.7,62.3-92.7,129.9h215.6v-50.6H158.1C200.8,713.9,295.1,706.8,295.1,618.8z"/>
	</g>
</g>
</svg>
