<?xml version="1.0" encoding="utf-8"?>
<!-- Generator: Adobe Illustrator 16.0.0, SVG Export Plug-In . SVG Version: 6.00 Build 0)  -->
<!DOCTYPE svg PUBLIC "-//W3C//DTD SVG 1.1//EN" "http://www.w3.org/Graphics/SVG/1.1/DTD/svg11.dtd">
<svg version="1.1" id="Layer_1" xmlns="http://www.w3.org/2000/svg" xmlns:xlink="http://www.w3.org/1999/xlink" x="0px" y="0px"
	 width="1024px" height="1024px" viewBox="0 0 1024 1024" enable-background="new 0 0 1024 1024" xml:space="preserve">
<g>
	<g>
		<path fill="#010202" d="M755.153,362.868c-41.805,0-75.729,31.237-75.729,69.813c0,38.609,33.926,69.79,75.729,69.79
			c41.824,0,75.708-31.182,75.708-69.79C830.86,394.105,796.978,362.868,755.153,362.868z M929.845,193.752H107.619
			c-39.613,0-71.725,32.112-71.725,71.724v587.648c0,39.613,32.112,71.725,71.725,71.725h822.226
			c39.613,0,71.725-32.111,71.725-71.725V265.476C1001.57,225.864,969.458,193.752,929.845,193.752z M944.795,756.553
			c0,62.124-50.89,112.482-113.668,112.482H205.959c-62.777,0-113.667-50.36-113.667-112.482V306.625
			c0-62.122,50.889-56.243,113.667-56.243H831.13c62.777,0,113.667-5.879,113.667,56.243L944.795,756.553L944.795,756.553z
			 M697.223,623.065c-35.273-52.124-87.205-49.25-115.42,6.382l-30.154,59.428l-107.937-149.32
			c-36.954-51.065-90.25-47.366-118.427,8.287L215.749,764.301c-28.25,55.636,3.234,47.334,69.901,47.334h454.352
			c66.59,0,92.287,11.196,57.035-40.951L697.223,623.065z"/>
	</g>
</g>
</svg>
