<?xml version="1.0" encoding="utf-8"?>
<!-- Generator: Adobe Illustrator 19.0.0, SVG Export Plug-In . SVG Version: 6.00 Build 0)  -->
<svg version="1.1" id="Layer_1" xmlns="http://www.w3.org/2000/svg" xmlns:xlink="http://www.w3.org/1999/xlink" x="0px" y="0px"
	 viewBox="0 0 1024 1024" style="enable-background:new 0 0 1024 1024;" xml:space="preserve">
<style type="text/css">
	.st0{fill:#010202;}
</style>
<g>
	<g>
		<path class="st0" d="M775.1,280.6c-46.5,0-84.2,34.7-84.2,77.7c0,42.9,37.7,77.6,84.2,77.6s84.2-34.7,84.2-77.6
			C859.3,315.3,821.6,280.6,775.1,280.6z M923.1,126.8H100.9c-39.6,0-71.7,32.1-71.7,71.7v627.6c0,39.6,32.1,71.7,71.7,71.7h822.2
			c39.6,0,71.7-32.1,71.7-71.7V198.5C994.9,158.9,962.8,126.8,923.1,126.8z M938.1,729.6c0,62.1-50.9,112.5-113.7,112.5H199.3
			c-62.8,0-113.7-50.4-113.7-112.5v-490c0-62.1,50.9-56.2,113.7-56.2h625.2c62.8,0,113.7-5.9,113.7,56.2L938.1,729.6L938.1,729.6z
			 M710.6,590c-39.2-58-97-54.8-128.4,7.1l-33.5,66.1l-120-166.1c-41.1-56.8-100.4-52.7-131.7,9.2L175.1,747.1
			c-31.4,61.9,3.6,52.7,77.8,52.7h505.4c74.1,0,102.7,12.5,63.4-45.6L710.6,590z"/>
	</g>
</g>
</svg>
