<svg xmlns="http://www.w3.org/2000/svg" xmlns:xlink="http://www.w3.org/1999/xlink" preserveAspectRatio="xMidYMid" width="1024" height="1024" viewBox="0 0 1024 1024">
  <defs>
    <style>
      .cls-1 {
        fill: #000;
        fill-rule: evenodd;
      }
    </style>
  </defs>
  <path d="M775.131,276.800 C728.617,276.800 690.905,311.500 690.905,354.500 C690.905,397.400 728.617,432.100 775.131,432.100 C821.646,432.100 859.358,397.400 859.358,354.500 C859.358,311.500 821.646,276.800 775.131,276.800 ZM923.177,131.000 L100.722,131.000 C61.110,131.000 29.000,163.100 29.000,202.700 L29.000,822.300 C29.000,861.900 61.110,894.000 100.722,894.000 L923.177,894.000 C962.790,894.000 994.900,861.900 994.900,822.300 L994.900,202.700 C995.000,163.100 962.890,131.000 923.177,131.000 ZM938.000,747.000 C938.000,809.100 919.819,838.000 857.000,838.000 L176.000,838.000 C111.575,838.000 85.000,821.213 85.000,757.000 L85.418,243.800 C85.418,181.700 114.309,188.000 163.000,188.000 L854.000,188.000 C898.480,188.000 938.282,181.700 938.282,243.800 L938.182,725.800 L938.000,747.000 ZM720.108,584.184 C679.040,523.465 618.485,526.815 585.589,591.617 L550.492,660.817 L424.773,486.928 C381.714,427.465 319.587,431.757 286.795,496.559 L159.085,748.651 C126.189,813.454 162.857,803.822 240.594,803.822 L770.082,803.822 C847.714,803.822 877.677,816.908 836.504,756.084 L720.108,584.184 Z" class="cls-1"/>
</svg>
