<?xml version="1.0" encoding="utf-8"?>
<!-- Generator: Adobe Illustrator 16.0.0, SVG Export Plug-In . SVG Version: 6.00 Build 0)  -->
<!DOCTYPE svg PUBLIC "-//W3C//DTD SVG 1.1//EN" "http://www.w3.org/Graphics/SVG/1.1/DTD/svg11.dtd">
<svg version="1.1" id="Layer_1" xmlns="http://www.w3.org/2000/svg" xmlns:xlink="http://www.w3.org/1999/xlink" x="0px" y="0px"
	 width="1024px" height="1024px" viewBox="0 0 1024 1024" enable-background="new 0 0 1024 1024" xml:space="preserve">
<g>
	<g>
		<path fill="#010202" d="M702.477,207.509c-53.309-38.108-120.261-57.165-200.84-57.165c-61.332,0-113.038,13.417-155.11,40.228
			c-66.68,41.996-102.159,113.266-106.435,213.83h154.575c0-29.285,8.623-57.511,25.87-84.687
			c17.252-27.168,46.522-40.753,87.789-40.753c41.967,0,70.875,11.03,86.702,33.08c15.829,22.054,23.745,46.494,23.745,73.307
			c0,23.288-7.11,44.64-21.325,64.042c-7.825,11.297-18.135,21.702-30.93,31.228l-38.939,30.17
			c-38.392,29.637-62.208,55.838-71.453,78.597c-9.245,22.763-14.935,63.966-17.065,123.591h144.948
			c0.352-28.225,2.666-49.043,6.933-62.457c6.757-21.172,20.441-39.699,41.076-55.577l37.866-29.108
			c38.411-29.64,64.368-53.984,77.88-73.044c23.118-31.4,34.675-70.037,34.675-115.914
			C782.44,302.077,755.78,245.618,702.477,207.509z M435.317,938.453H595.24V785.488H435.317V938.453z"/>
	</g>
</g>
</svg>
