<svg xmlns="http://www.w3.org/2000/svg" xmlns:xlink="http://www.w3.org/1999/xlink" preserveAspectRatio="xMidYMid" width="1024" height="1024" viewBox="0 0 1024 1024">
  <defs>
    <style>
      .cls-1 {
        fill: #000;
        fill-rule: evenodd;
      }
    </style>
  </defs>
  <path d="M421.346,978.129 L610.443,978.129 L610.443,797.096 L421.346,797.096 L421.346,978.129 ZM190.505,346.083 L373.280,346.083 C373.280,311.425 383.476,278.019 403.871,245.858 C424.271,213.704 458.877,197.626 507.674,197.626 C557.296,197.626 591.478,210.680 610.193,236.777 C628.909,262.878 638.269,291.802 638.269,323.535 C638.269,351.096 629.862,376.366 613.052,399.329 C603.801,412.698 591.610,425.012 576.479,436.287 L530.438,471.992 C485.042,507.068 456.881,538.075 445.950,565.011 C435.018,591.947 428.291,640.711 425.771,711.280 L597.163,711.280 C597.578,677.874 600.314,653.238 605.362,637.364 C613.350,612.306 629.532,590.380 653.933,571.588 L698.705,537.138 C744.124,502.059 774.814,473.245 790.794,450.692 C818.129,413.529 831.797,367.801 831.797,313.508 C831.797,224.983 800.272,158.163 737.246,113.062 C674.210,67.960 595.044,45.407 499.767,45.407 C427.243,45.407 366.104,61.285 316.359,93.017 C237.514,142.718 195.563,227.066 190.505,346.083 L190.505,346.083 Z" class="cls-1"/>
</svg>
