<?xml version="1.0" encoding="utf-8"?>
<!-- Generator: Adobe Illustrator 16.0.0, SVG Export Plug-In . SVG Version: 6.00 Build 0)  -->
<!DOCTYPE svg PUBLIC "-//W3C//DTD SVG 1.1//EN" "http://www.w3.org/Graphics/SVG/1.1/DTD/svg11.dtd">
<svg version="1.1" id="Layer_1" xmlns="http://www.w3.org/2000/svg" xmlns:xlink="http://www.w3.org/1999/xlink" x="0px" y="0px"
	 width="1024px" height="1024px" viewBox="0 0 1024 1024" enable-background="new 0 0 1024 1024" xml:space="preserve">
<g>
	<g>
		<path fill="#010202" d="M698.937,815.558c-172.763,97.247-393.678,39.538-493.42-128.898
			c-99.75-168.429-40.552-383.804,132.211-481.048c151.333-85.184,339.61-51.463,451.033,71.421L669.9,343.935l242.183,80.562
			l49.526-244.759l-88.086,49.582C734.342,61.848,487.107,13.094,289.568,124.284C70.73,247.46-4.247,520.268,122.096,733.616
			C248.442,946.961,528.264,1020.06,747.1,896.885c78.203-44.019,176.876-179.843,176.876-179.843l-88.462-37.854
			C804.808,734.214,758.658,781.943,698.937,815.558z"/>
	</g>
</g>
</svg>
