<svg xmlns="http://www.w3.org/2000/svg" xmlns:xlink="http://www.w3.org/1999/xlink" preserveAspectRatio="xMidYMid" width="1024" height="1024" viewBox="0 0 1024 1024">
  <defs>
    <style>
      .cls-1 {
        fill: #000;
        fill-rule: evenodd;
      }
    </style>
  </defs>
  <path d="M1121.503,64.967 L1054.302,397.380 L725.683,287.967 L886.964,197.103 C735.777,30.212 480.304,-15.584 274.960,100.106 C40.538,232.174 -39.784,524.679 95.563,753.428 C230.904,982.181 530.664,1060.558 765.086,928.487 C846.121,882.834 908.741,818.011 950.405,743.276 L1070.437,794.690 C1070.437,794.690 936.553,979.156 830.438,1038.939 C533.500,1206.224 153.810,1106.948 -17.628,817.199 C-189.062,527.447 -87.326,156.942 209.613,-10.347 C477.656,-161.355 813.126,-95.142 1001.978,132.306 L1121.503,64.967 Z" class="cls-1"/>
</svg>
