<?xml version="1.0" encoding="utf-8"?>
<!-- Generator: Adobe Illustrator 16.0.0, SVG Export Plug-In . SVG Version: 6.00 Build 0)  -->
<!DOCTYPE svg PUBLIC "-//W3C//DTD SVG 1.1//EN" "http://www.w3.org/Graphics/SVG/1.1/DTD/svg11.dtd">
<svg version="1.1" id="Layer_1" xmlns="http://www.w3.org/2000/svg" xmlns:xlink="http://www.w3.org/1999/xlink" x="0px" y="0px"
	 width="1024px" height="1024px" viewBox="0 0 1024 1024" enable-background="new 0 0 1024 1024" xml:space="preserve">
<g>
	<g>
		<path fill="#010202" d="M901.8,183.659l-51.433-52.249L499.654,478.651L148.197,131.41l-52.18,52.249L446.73,530.163
			L96.015,876.664l52.18,52.249l351.457-347.235l350.715,347.234l51.433-52.249l-350.713-346.5L901.8,183.659z M441.876,274.24
			c8.066,7.998,17.547,14.254,28.445,18.767c10.881,4.528,22.291,6.778,34.244,6.778c25.977,0,47.052-8.506,63.218-25.545
			c16.153-17.025,24.235-37.696,24.235-62.037c0-25.023-8.794-45.874-26.343-62.557c-17.566-16.684-37.934-25.023-61.111-25.023
			c-26.702,0-48.299,8.519-64.798,25.545c-16.512,17.037-24.761,37.713-24.761,62.035c0,12.511,2.457,23.982,7.376,34.409
			C427.291,257.036,433.794,266.258,441.876,274.24z M565.677,791.387c-17.566-15.643-37.934-23.461-61.111-23.461
			c-26.702,0-48.299,8.178-64.797,24.501c-16.512,16.342-24.761,36.333-24.761,59.953c0,25.709,8.776,46.562,26.342,62.558
			c17.549,15.981,38.62,23.979,63.216,23.979c25.289,0,46.179-7.997,62.693-23.979c16.493-15.998,24.759-37.192,24.759-63.601
			C592.019,827.013,583.225,807.025,565.677,791.387z M878.073,469.735c-17.908-15.985-39.164-23.983-63.742-23.983
			c-24.596,0-45.142,8.521-61.636,25.545c-16.516,17.042-24.765,37.714-24.765,62.037c0,25.025,8.594,45.531,25.814,61.514
			c17.206,15.998,37.403,23.981,60.584,23.981c26.685,0,48.466-7.983,65.321-23.981c16.86-15.982,25.288-36.833,25.288-62.557
			C904.941,506.585,895.985,485.73,878.073,469.735z M182.16,618.83c24.581,0,44.943-7.982,61.112-23.981
			c16.148-15.981,24.231-36.833,24.231-62.557c0-25.707-8.429-46.563-25.288-62.559c-16.855-15.985-36.876-23.983-60.055-23.983
			c-26.702,0-48.121,8.521-64.269,25.545c-16.169,17.042-24.236,37.714-24.236,62.037c0,25.024,8.249,45.531,24.759,61.514
			C134.913,610.848,156.164,618.83,182.16,618.83z"/>
	</g>
</g>
</svg>
