<?xml version="1.0" encoding="utf-8"?>
<!-- Generator: Adobe Illustrator 16.0.0, SVG Export Plug-In . SVG Version: 6.00 Build 0)  -->
<!DOCTYPE svg PUBLIC "-//W3C//DTD SVG 1.1//EN" "http://www.w3.org/Graphics/SVG/1.1/DTD/svg11.dtd">
<svg version="1.1" id="Layer_1" xmlns="http://www.w3.org/2000/svg" xmlns:xlink="http://www.w3.org/1999/xlink" x="0px" y="0px"
	 width="1024px" height="1024px" viewBox="0 0 1024 1024" enable-background="new 0 0 1024 1024" xml:space="preserve">
<g>
	<g>
		<path fill="#010202" d="M813.472,136.035H207.796c-70.692,0-128,57.308-128,128v496.53c0,70.69,57.308,128,128,128h605.676
			c70.692,0,128-57.31,128-128v-496.53C941.472,193.343,884.164,136.035,813.472,136.035z M883.529,706.96
			c0,69.434-56.29,125.726-125.726,125.726H262.396c-69.438,0-125.726-56.292-125.726-125.726V317.641
			c0-69.437,56.289-125.727,125.726-125.727h495.407c69.436,0,125.726,56.29,125.726,125.727V706.96z"/>
	</g>
</g>
</svg>
