<?xml version="1.0" encoding="utf-8"?>
<!-- Generator: Adobe Illustrator 16.0.0, SVG Export Plug-In . SVG Version: 6.00 Build 0)  -->
<!DOCTYPE svg PUBLIC "-//W3C//DTD SVG 1.1//EN" "http://www.w3.org/Graphics/SVG/1.1/DTD/svg11.dtd">
<svg version="1.1" id="Layer_1" xmlns="http://www.w3.org/2000/svg" xmlns:xlink="http://www.w3.org/1999/xlink" x="0px" y="0px"
	 width="1024px" height="1024px" viewBox="0 0 1024 1024" enable-background="new 0 0 1024 1024" xml:space="preserve">
<g>
	<g>
		<path fill="#010202" d="M570.672,648.717c25.133,13.868,44.349,22.063,57.653,35.343c29.914,28.125,44.874,59.968,44.874,95.508
			c0,22.269-6.027,42.188-18.073,59.768c-12.057,17.578-28.985,31.448-50.797,41.599c-21.813,10.166-46.852,15.233-75.108,15.233
			c-39.061,0-76.662-8.687-112.813-26.072c-36.154-17.375-69.186-42.482-99.101-75.296c-29.921-32.814-37.704-70.899-55.983-114.258
			h-39.892v275.979h39.892c3.74-15.232,11.843-27.626,24.307-37.206c12.465-9.569,10.689-14.357,27.311-14.357
			c11.625,0,34.687,5.475,69.185,16.407c34.485,10.939,65.337,19.721,92.555,26.369c27.212,6.637,57.859,9.962,91.937,9.962
			c49.861,0,95.772-9.771,137.745-29.299c41.963-19.526,74.794-46.585,98.479-81.155c23.684-34.571,35.527-72.749,35.527-114.553
			c0-31.64-5.824-56.039-17.454-83.975L570.672,648.717L570.672,648.717z M900.003,476.454H630.435
			c-17.686-9.364-35.426-18.394-53.221-27.069c-34.079-16.597-69.808-34.367-107.208-53.319
			c-37.396-18.943-62.541-34.076-75.415-45.412c-22.859-21.478-34.279-45.503-34.279-72.073c0-28.901,11.313-52.047,33.968-69.432
			c22.641-17.376,52.871-26.075,90.689-26.075c35.31,0,69.698,8.301,103.152,24.903c33.44,16.608,63.982,40.136,91.622,70.604
			c27.627,30.472,50.176,66.02,67.624,106.643h53.772V131.618h-56.264c-8.318,26.954-23.899,44.02-46.746,44.02
			c-8.316,0-19.742-10.628-34.281-13.95c-14.551-3.314-33.454-8.296-56.72-14.942c-23.276-6.637-45.405-11.719-66.382-15.234
			c-20.987-3.515-44.98-5.272-71.987-5.272c-36.989,0-71.473,5.079-103.468,15.234c-32.001,10.162-59.63,24.314-82.894,42.481
			c-23.278,18.165-41.558,39.843-54.849,65.039c-13.304,25.196-19.945,52.058-19.945,80.569c0,53.907,21.599,101.178,64.82,141.798
			c1.942,1.712,3.923,3.409,5.922,5.097H123.997c-10.109,0-18.305,8.196-18.305,18.306v77.995c0,10.11,8.196,18.307,18.305,18.307
			h776.006c10.11,0,18.306-8.196,18.306-18.307v-77.995C918.309,484.65,910.114,476.454,900.003,476.454z"/>
	</g>
</g>
</svg>
