<?xml version="1.0" encoding="utf-8"?>
<!-- Generator: Adobe Illustrator 16.0.0, SVG Export Plug-In . SVG Version: 6.00 Build 0)  -->
<!DOCTYPE svg PUBLIC "-//W3C//DTD SVG 1.1//EN" "http://www.w3.org/Graphics/SVG/1.1/DTD/svg11.dtd">
<svg version="1.1" id="Layer_1" xmlns="http://www.w3.org/2000/svg" xmlns:xlink="http://www.w3.org/1999/xlink" x="0px" y="0px"
	 width="1024px" height="1024px" viewBox="0 0 1024 1024" enable-background="new 0 0 1024 1024" xml:space="preserve">
<g>
	<g>
		<path fill="#010202" d="M668.746,753.523L517.077,517.631l146.453-214.105c13.36-19.533,36.575-31.371,61.516-31.371h39.662
			v-74.212H583.721L432.185,417.995L280.653,197.943H99.67v74.212h39.661c24.948,0,48.155,11.837,61.512,31.371l146.454,214.105
			L195.626,753.523c-13.135,20.439-36.907,32.96-62.569,32.96h-42.4v74.213h194.297l147.232-230.22l147.239,230.22h194.297v-74.213
			h-42.398C705.66,786.483,681.889,773.963,668.746,753.523z M925.367,917.841c35.409-29.62,74.123-65.124,74.123-111.363
			c0-45.844-32.795-75.463-83.545-75.463c-27.65,0-55.459,8.138-78.885,26.261l18.229,45.941
			c15.143-11.173,30.78-20.969,50.24-20.969c20.942,0,32.471,10.21,32.471,28.705c-0.4,30.975-37.021,61.143-102.813,120.815v38.353
			H1004v-52.279L925.367,917.841L925.367,917.841z"/>
	</g>
</g>
</svg>
