<?xml version="1.0" encoding="utf-8"?>
<!-- Generator: Adobe Illustrator 16.0.0, SVG Export Plug-In . SVG Version: 6.00 Build 0)  -->
<!DOCTYPE svg PUBLIC "-//W3C//DTD SVG 1.1//EN" "http://www.w3.org/Graphics/SVG/1.1/DTD/svg11.dtd">
<svg version="1.1" id="Layer_1" xmlns="http://www.w3.org/2000/svg" xmlns:xlink="http://www.w3.org/1999/xlink" x="0px" y="0px"
	 width="1024px" height="1024px" viewBox="0 0 1024 1024" enable-background="new 0 0 1024 1024" xml:space="preserve">
<g>
	<g>
		<path fill="#010202" d="M638.914,761.941L486.828,525.609l146.856-214.495c13.394-19.572,36.67-31.432,61.683-31.432h39.767
			v-74.35H553.655L401.703,425.796l-151.952-220.46H68.264v74.35h39.776c25.008,0,48.282,11.859,61.682,31.432l146.856,214.49
			L164.49,761.938c-13.176,20.477-37.01,33.018-62.745,33.018h-42.51v74.354H254.06l147.643-230.648L549.338,869.31h194.835v-74.351
			h-42.519C675.925,794.959,652.086,782.417,638.914,761.941z M926.134,318.947c35.413-29.623,74.122-65.123,74.122-111.366
			c0-45.84-32.794-75.463-83.544-75.463c-27.646,0-55.458,8.141-78.881,26.265l18.226,45.942
			c15.142-11.173,30.782-20.97,50.242-20.97c20.939,0,32.472,10.213,32.472,28.702c-0.4,30.978-37.019,61.143-102.813,120.818
			v38.353h168.808v-52.278h-78.631L926.134,318.947L926.134,318.947z"/>
	</g>
</g>
</svg>
