<?xml version="1.0" encoding="utf-8"?>
<!-- Generator: Adobe Illustrator 16.0.0, SVG Export Plug-In . SVG Version: 6.00 Build 0)  -->
<!DOCTYPE svg PUBLIC "-//W3C//DTD SVG 1.1//EN" "http://www.w3.org/Graphics/SVG/1.1/DTD/svg11.dtd">
<svg version="1.1" id="Layer_1" xmlns="http://www.w3.org/2000/svg" xmlns:xlink="http://www.w3.org/1999/xlink" x="0px" y="0px"
	 width="1024px" height="1024px" viewBox="0 0 1024 1024" enable-background="new 0 0 1024 1024" xml:space="preserve">
<g>
	<g>
		<path fill="#010202" d="M25.707,167.884v782.833h972.586V167.884H25.707z M938.057,228.513v181.135H695.011V228.513H938.057z
			 M633.587,228.513v181.135H390.45V228.513H633.587z M86.081,469.788h242.906v180.305H86.081V469.788z M390.45,469.788h243.137
			v180.305H390.45V469.788z M328.988,228.513v181.135H86.081V228.513H328.988z M938.057,890.943H86.081v-180.71h242.906v180.379
			h61.462V710.233h243.137v180.379h61.425V710.233h243.045V890.943z M695.011,650.093V469.788h243.044v180.305H695.011z"/>
	</g>
</g>
</svg>
