<?xml version="1.0" encoding="utf-8"?>
<!-- Generator: Adobe Illustrator 19.0.0, SVG Export Plug-In . SVG Version: 6.00 Build 0)  -->
<svg version="1.1" id="Layer_1" xmlns="http://www.w3.org/2000/svg" xmlns:xlink="http://www.w3.org/1999/xlink" x="0px" y="0px"
	 viewBox="0 0 1024 1024" style="enable-background:new 0 0 1024 1024;" xml:space="preserve">
<style type="text/css">
	.st0{fill:#010202;}
</style>
<g>
	<g>
		<path class="st0" d="M60.7,120.6v782.8h902.6V120.6H60.7z M903.1,181.2v181.1H680V181.2H903.1z M618.6,181.2v181.1H395.5V181.2
			H618.6z M121.1,422.5H334v180.3H121.1V422.5z M395.5,422.5h223.1v180.3H395.5V422.5z M334,181.2v181.1H121.1V181.2H334z
			 M903.1,843.6h-782V662.9H334v180.4h61.5V662.9h223.1v180.4H680V662.9h223L903.1,843.6L903.1,843.6z M680,602.8V422.5h223v180.3
			H680z"/>
	</g>
</g>
</svg>
