<svg xmlns="http://www.w3.org/2000/svg" xmlns:xlink="http://www.w3.org/1999/xlink" preserveAspectRatio="xMidYMid" width="1024" height="1024" viewBox="0 0 1024 1024">
  <defs>
    <style>
      .cls-1 {
        fill: #000;
        fill-rule: evenodd;
      }
    </style>
  </defs>
  <path d="M28.000,68.000 L28.000,956.000 L996.000,956.000 L996.000,68.000 L28.000,68.000 ZM930.000,134.523 L930.000,342.993 L695.600,342.993 L695.600,134.523 L930.000,134.523 ZM628.300,134.523 L628.300,342.993 L394.800,342.993 L394.800,134.523 L628.300,134.523 ZM94.200,408.916 L327.500,408.916 L327.500,616.585 L94.200,616.585 L94.200,408.916 ZM394.800,408.916 L628.300,408.916 L628.300,616.585 L394.800,616.585 L394.800,408.916 ZM327.400,134.523 L327.400,342.993 L94.200,342.993 L94.200,134.523 L327.400,134.523 ZM930.000,890.577 L94.200,890.577 L94.200,682.508 L327.500,682.508 L327.500,890.177 L394.800,890.177 L394.800,682.508 L628.300,682.508 L628.300,890.177 L695.600,890.177 L695.600,682.508 L930.000,682.508 L930.000,890.577 L930.000,890.577 ZM695.600,616.585 L695.600,408.916 L930.000,408.916 L930.000,616.585 L695.600,616.585 Z" class="cls-1"/>
</svg>
