<?xml version="1.0" encoding="utf-8"?>
<!-- Generator: Adobe Illustrator 16.0.0, SVG Export Plug-In . SVG Version: 6.00 Build 0)  -->
<!DOCTYPE svg PUBLIC "-//W3C//DTD SVG 1.1//EN" "http://www.w3.org/Graphics/SVG/1.1/DTD/svg11.dtd">
<svg version="1.1" id="Layer_1" xmlns="http://www.w3.org/2000/svg" xmlns:xlink="http://www.w3.org/1999/xlink" x="0px" y="0px"
	 width="1024px" height="1024px" viewBox="0 0 1024 1024" enable-background="new 0 0 1024 1024" xml:space="preserve">
<g>
	<g>
		<path fill="#010202" d="M7.743,393.488H62.17c2.31-28.643,8.839-53.383,19.581-74.231c10.735-20.841,24.039-34.766,39.903-41.769
			c15.861-6.995,57.11-10.5,90.816-10.5h61.268v445.094c0,28.961-5.04,49.407-15.12,61.341
			c-10.083,11.937-36.73,17.903-70.437,17.903h-15.858v52.988h362.271v-52.988h-17.348c-33.384,0-55.272-5.802-65.677-17.427
			c-10.41-11.613-15.616-32.222-15.616-61.817V266.986h57.993c41.968,0,85.913,8.675,105.082,26.014
			c19.161,17.352,34.032,50.84,44.61,100.487h59.186V209.224H7.743V393.488z M914.144,746.39V306.152h95.469l-120.896-97.536
			l-120.898,97.536h95.696V746.39H761.177l127.541,97.581l127.539-97.581H914.144z"/>
	</g>
</g>
</svg>
