<?xml version="1.0" encoding="utf-8"?>
<!-- Generator: Adobe Illustrator 16.0.0, SVG Export Plug-In . SVG Version: 6.00 Build 0)  -->
<!DOCTYPE svg PUBLIC "-//W3C//DTD SVG 1.1//EN" "http://www.w3.org/Graphics/SVG/1.1/DTD/svg11.dtd">
<svg version="1.1" id="Layer_1" xmlns="http://www.w3.org/2000/svg" xmlns:xlink="http://www.w3.org/1999/xlink" x="0px" y="0px"
	 width="1024px" height="1024px" viewBox="0 0 1024 1024" enable-background="new 0 0 1024 1024" xml:space="preserve">
<g>
	<g>
		<path fill="#040507" d="M662.792,179.258c-33.565,0-60.776-26.945-60.776-60.191H403.949c0,33.243-27.213,60.191-60.779,60.191
			H75.737v61.319h858.321v-61.319H662.792z M259.119,969.874h491.552l122.725-668.6h-737L259.119,969.874z M665.691,407.502
			c0-19.733,16.156-35.726,36.077-35.726c19.924,0,36.075,15.994,36.075,35.726l-53.117,452.552
			c0,19.732-16.156,35.723-36.074,35.723c-19.922,0-36.074-15.992-36.074-35.723L665.691,407.502z M469.403,407.502
			c0-19.733,16.154-35.726,36.078-35.726c19.922,0,36.071,15.994,36.071,35.726v452.552c0,19.732-16.149,35.723-36.071,35.723
			c-19.926,0-36.078-15.992-36.078-35.723V407.502z M298.562,371.776c19.925,0,36.074,15.994,36.074,35.726l61.615,452.552
			c0,19.732-16.148,35.723-36.07,35.723c-19.926,0-36.078-15.992-36.078-35.723l-61.616-452.552
			C262.488,387.77,278.64,371.776,298.562,371.776z"/>
	</g>
</g>
</svg>
