<?xml version="1.0" encoding="utf-8"?>
<!-- Generator: Adobe Illustrator 16.0.0, SVG Export Plug-In . SVG Version: 6.00 Build 0)  -->
<!DOCTYPE svg PUBLIC "-//W3C//DTD SVG 1.1//EN" "http://www.w3.org/Graphics/SVG/1.1/DTD/svg11.dtd">
<svg version="1.1" id="Layer_1" xmlns="http://www.w3.org/2000/svg" xmlns:xlink="http://www.w3.org/1999/xlink" x="0px" y="0px"
	 width="1024px" height="1024px" viewBox="0 0 1024 1024" enable-background="new 0 0 1024 1024" xml:space="preserve">
<g>
	<g>
		<path fill="#010202" d="M157.866,954.839h729.447v-60.104H157.866V954.839z M646.248,122.542v58.752
			c71.672,0,107.51,36.701,107.51,110.092v241.354c0,57.162-4.641,101.713-13.908,133.641c-9.277,31.939-29.51,59.017-60.703,81.245
			c-31.211,22.23-68.732,33.348-112.592,33.348c-40.299,0-74.88-10.403-103.763-31.226c-28.883-20.818-47.604-46.048-56.159-75.688
			c-8.558-29.641-12.84-70.216-12.84-121.736V269.154c0-32.462,5.352-55.219,16.048-68.279
			c10.697-13.05,34.047-19.581,70.068-19.581h12.301v-58.752H109.246v58.752c39.581,0,65.252,6.175,77.025,18.524
			c11.767,12.354,17.647,35.46,17.647,69.337v283.166c0,44.819,4.188,83.546,12.568,116.18c8.374,32.643,24.339,62.81,47.871,90.507
			c23.534,27.704,57.5,50.641,101.894,68.809c44.393,18.172,94.578,27.258,150.563,27.258c53.484,0,102.16-9.178,146.021-27.521
			c43.857-18.345,78.084-42.607,102.693-72.777c24.602-30.168,40.199-61.57,46.799-94.211c6.592-32.637,9.893-74.716,9.893-126.236
			V294.56c0-27.521,3.211-48.958,9.629-64.309c6.42-15.349,18.002-27.341,34.766-35.989c16.76-8.645,32.801-12.967,48.139-12.967
			v-58.752L646.248,122.542L646.248,122.542z"/>
	</g>
</g>
</svg>
