<?xml version="1.0" encoding="utf-8"?>
<!-- Generator: Adobe Illustrator 16.0.0, SVG Export Plug-In . SVG Version: 6.00 Build 0)  -->
<!DOCTYPE svg PUBLIC "-//W3C//DTD SVG 1.1//EN" "http://www.w3.org/Graphics/SVG/1.1/DTD/svg11.dtd">
<svg version="1.1" id="Layer_1" xmlns="http://www.w3.org/2000/svg" xmlns:xlink="http://www.w3.org/1999/xlink" x="0px" y="0px"
	 width="1024px" height="1024px" viewBox="0 0 1024 1024" enable-background="new 0 0 1024 1024" xml:space="preserve">
<g>
	<g>
		<path fill="#010202" d="M737.693,116.942C536.139,3.496,283.887,53.239,141.878,224.11l-89.873-50.588L102.54,423.25l247.1-82.198
			l-121.275-68.261c113.685-125.377,305.781-159.783,460.185-72.87c176.27,99.218,236.667,318.967,134.897,490.814
			C721.677,862.588,496.28,921.471,320.008,822.251c-60.931-34.298-108.018-82.995-139.346-139.141l-90.254,38.624
			c0,0,100.671,138.582,180.464,183.492c223.274,125.675,508.777,51.093,637.688-166.583
			C1037.469,520.965,960.968,242.619,737.693,116.942z"/>
	</g>
</g>
</svg>
