<svg xmlns="http://www.w3.org/2000/svg" xmlns:xlink="http://www.w3.org/1999/xlink" preserveAspectRatio="xMidYMid" width="1024" height="1024" viewBox="0 0 1024 1024">
  <defs>
    <style>
      .cls-1 {
        fill: #000;
        fill-rule: evenodd;
      }
    </style>
  </defs>
  <path d="M1038.122,817.199 C866.684,1106.948 486.993,1206.224 190.060,1038.939 C83.945,979.156 -49.939,794.690 -49.939,794.690 L70.089,743.276 C111.752,818.011 174.373,882.834 255.407,928.487 C489.834,1060.558 789.589,982.181 924.931,753.428 C1060.277,524.679 979.955,232.174 745.533,100.106 C540.189,-15.584 284.720,30.212 133.531,197.103 L294.815,287.967 L-33.804,397.380 L-101.010,64.967 L18.515,132.305 C207.368,-95.142 542.839,-161.355 810.885,-10.347 C1107.819,156.942 1209.560,527.447 1038.122,817.199 Z" class="cls-1"/>
</svg>
