<?xml version="1.0" encoding="utf-8"?>
<!-- Generator: Adobe Illustrator 23.0.1, SVG Export Plug-In . SVG Version: 6.00 Build 0)  -->
<svg version="1.1" id="Layer_1" xmlns="http://www.w3.org/2000/svg" xmlns:xlink="http://www.w3.org/1999/xlink" x="0px" y="0px"
	 viewBox="0 0 1024 1024" style="enable-background:new 0 0 1024 1024;" xml:space="preserve">
<style type="text/css">
	.st0{fill-rule:evenodd;clip-rule:evenodd;}
</style>
<g>
	<g>
		<g>
			<path class="st0" d="M512.4,97.7v112.9c190.3,1.3,344.1,155.9,344.1,346.5c0,191.4-155.1,346.5-346.5,346.5
				S163.5,748.4,163.5,557.1H50.6c0,253.7,205.7,459.4,459.4,459.4s459.4-205.7,459.4-459.4C969.4,304.2,765,99,512.4,97.7z"/>
		</g>
		<path class="st0" d="M486,4.4C469.4,12.7,295.8,132,281.8,139.5c-12.5,6.7-12.8,22.6,0,29.3c19.4,10.2,192.2,128.9,203.6,134.8
			c14.2,7.4,28.6-2,28.6-14.6V18.8C514,5,498.1-1.7,486,4.4z"/>
	</g>
	<polygon class="st0" points="639.5,340.1 512.4,467.2 385.3,340.1 295.4,430 422.5,557.1 295.4,684.2 385.3,774.1 512.4,647 
		639.5,774.1 729.4,684.2 602.3,557.1 729.4,430 	"/>
</g>
</svg>
